# xmcd
#
# Track frame offsets: 
#        150
#        21018
#        41688
#        64440
#        80364
#        101183
#        122901
#        139352
#        158889
#        173946
#        192480
#        211310
#        231254
#        244969
#        262512
#        288865
#        307627
#        322249
#        351051
#        368160
#
# Disc length: 5165 seconds
#
# Revision: 0
# Processed by: cddbd v1.5.2PL0 Copyright (c) Steve Scherf et al.
# Submitted via: ExactAudioCopy v0.95b4
#
DISCID=2e142b14
DTITLE=Various Artist - Electric Blues Vol.4 1970-2005 CD 3
DYEAR=1900
DGENRE=Blues
TTITLE0=Hollywood Fats Band - Rock This House
TTITLE1=Albert Collins - Brick
TTITLE2=Z.Z. Hill - Down Home Blues
TTITLE3=Johnny Copeland - Claim Jumper
TTITLE4=Clarence 'Gatemouth' Brown - Dollar Got The Blues
TTITLE5=George Thorogood and The Destroyers - Bad To The Bone
TTITLE6=Stevie Ray Vaughan and Double Trouble - Pride And Joy
TTITLE7=Lonnie Brooks - Don't Take Advantage Of Me
TTITLE8=Fabulous Thunderbirds - Tuff Enuff
TTITLE9=Robert Cray - Smoking Gun
TTITLE10=Joe Louis Walker - Cold Is The Night
TTITLE11=Buddy Guy - Damn Right, I've Got The Blues
TTITLE12=Robert Ward - Your Love Is Real
TTITLE13=Snooks Eaglin - Red Beans
TTITLE14=Junior Kimbrough and The Soul Blues Boys - All Night Long
TTITLE15=R. L. Burnside - Old Black Mattie
TTITLE16=Ronnie Earl and The Broadcasters - Robert Nighthawk Stomp
TTITLE17=Luther Allison - Bad Love
TTITLE18=Arthur Adams - Backup Man
TTITLE19=Nick Moss and The Flip Tops - Check My Pulse
EXTD=
EXTT0=
EXTT1=
EXTT2=
EXTT3=
EXTT4=
EXTT5=
EXTT6=
EXTT7=
EXTT8=
EXTT9=
EXTT10=
EXTT11=
EXTT12=
EXTT13=
EXTT14=
EXTT15=
EXTT16=
EXTT17=
EXTT18=
EXTT19=
PLAYORDER=
